<?xml version="1.0" encoding="UTF-8"?>
<!DOCTYPE svg PUBLIC "-//W3C//DTD SVG 1.1//EN" "http://www.w3.org/Graphics/SVG/1.1/DTD/svg11.dtd">
<!-- Creator: CorelDRAW X8 -->
<svg xmlns="http://www.w3.org/2000/svg" xml:space="preserve" width="33.8666mm" height="33.8666mm" version="1.1" style="shape-rendering:geometricPrecision; text-rendering:geometricPrecision; image-rendering:optimizeQuality; fill-rule:evenodd; clip-rule:evenodd"
viewBox="0 0 3387 3387"
 xmlns:xlink="http://www.w3.org/1999/xlink">
 <defs>
  <style type="text/css">
   <![CDATA[
    .str2 {stroke:white;stroke-width:34.99}
    .str1 {stroke:white;stroke-width:20}
    .str0 {stroke:white;stroke-width:10}
    .fil2 {fill:none}
    .fil0 {fill:white}
    .fil3 {fill:white;fill-rule:nonzero}
    .fil1 {fill:white;fill-rule:nonzero}
   ]]>
  </style>
 </defs>
 <g id="Layer_x0020_1">
  <metadata id="CorelCorpID_0Corel-Layer"/>
  <g id="_2504031788992">
   <g>
    <g>
     <path class="fil0" d="M2307 2941l-80 -30 -93 -65 -35 -185 11 -164 -52 -203 -175 -183 -182 -71 88 -103 49 -266c-115,-303 -270,-673 -260,-766l22 -90c20,-77 54,-142 100,-197l108 -61 84 -67 170 -45 240 17 156 63 118 196 32 248 31 223 -57 252 -126 265 60 216 24 174 -111 665 -122 177z"/>
     <path class="fil1 str0" d="M1600 815c-19,55 -29,106 -19,140 37,132 92,248 142,356 74,159 119,303 120,437 1,82 -18,146 -89,239 -10,14 -27,31 -53,53 -2,0 -5,0 -7,0l-7 0c221,-246 107,-445 15,-720 -50,-108 -105,-225 -143,-359 -11,-39 -1,-95 20,-154 29,-86 69,-151 99,-201 43,-2 21,8 1,41 -31,52 -54,106 -79,168zm93 1244c5,0 11,4 12,4l9 2c144,37 221,106 311,220 83,104 59,329 86,469 16,85 15,104 88,162 256,203 329,-634 345,-762 15,-113 -75,-380 -64,-458 19,-138 141,-272 157,-429 22,-208 -16,-624 -202,-760 -111,-82 -269,-75 -400,-59 -201,25 -221,134 -341,136 -1,28 -4,30 50,18 116,-27 90,-123 363,-137 215,-11 363,18 444,248 60,169 104,505 31,673 -191,437 -123,231 -68,666 19,148 -26,380 -57,524 -23,106 -111,506 -279,286 -130,-171 11,-445 -166,-628 -104,-108 -132,-150 -293,-191l-7 -2c-3,0 -11,-2 -19,-1l0 19zm0 0c-4,0 -10,4 -12,4l-8 2c-144,37 -221,106 -311,220 -84,106 -58,327 -86,469 -16,83 -18,106 -87,163 -255,207 -335,-651 -348,-778 -7,-74 51,-302 65,-393 19,-129 -134,-311 -154,-457 -28,-205 11,-626 184,-770 108,-91 257,-86 390,-75 229,19 237,137 368,140 -1,28 3,30 -51,18 -108,-25 -101,-121 -336,-136 -256,-17 -414,23 -488,300 -48,181 -87,457 -8,632 192,428 106,252 58,687 -14,120 96,1099 342,775 123,-162 -12,-444 164,-627 103,-107 133,-149 292,-190l8 -2c3,0 11,-2 19,-1l-1 19z"/>
    </g>
    <line class="fil2" x1="922" y1="582" x2="1388" y2= "1071" />
    <g>
     <path class="fil3" d="M1353 442l0 5 -1 5 -1 6 -1 5 -1 5 -2 5 -1 5 -2 4 -2 5 -3 4 -3 5 -2 4 -3 4 -4 4 -3 4 -4 3 -3 3 -4 4 -4 3 -4 3 -5 2 -4 3 -5 2 -4 2 -5 2 -5 1 -5 1 -5 2 -5 0 -6 1 -5 0 -5 0 0 0 -6 0 -5 -1 -5 0 -5 -1 -6 -2 -4 -1 -5 -2 -5 -2 -5 -2 -4 -3 -4 -2 -5 -3 -4 -3 -4 -3 -3 -4 -4 -3 -3 -4 -3 -4 -3 -4 -3 -4 -3 -5 -2 -4 -3 -5 -2 -4 -1 -5 -2 -5 -1 -5 -1 -5 -1 -5 -1 -5 0 -6 0 -5 0 0 0 -6 1 -5 1 -5 1 -5 1 -5 2 -5 1 -5 2 -5 3 -4 2 -5 3 -4 2 -4 4 -4 3 -4 3 -4 4 -4 3 -3 4 -3 4 -3 4 -3 5 -3 4 -2 5 -2 5 -2 4 -2 5 -2 5 -1 5 -1 6 -1 5 0 5 -1 6 0 0 0 5 1 5 0 5 1 6 1 5 1 5 2 4 2 5 2 5 2 4 2 5 3 4 3 4 3 4 3 3 3 4 4 3 4 4 4 3 4 2 4 3 4 2 5 3 4 2 5 1 5 2 5 1 5 1 5 1 5 1 5 0 5 0 6 0 0zm-121 471l11 -474 10 0 -11 474 -10 0z"/>
    </g>
    <g>
     <path class="fil3" d="M1276 1010l-5 2 -6 2 -5 1 -5 1 -5 1 -5 0 -5 1 -5 0 -5 -1 -5 0 -5 -1 -5 -1 -5 -1 -5 -1 -5 -2 -5 -2 -4 -2 -5 -2 -4 -3 -4 -3 -4 -3 -4 -3 -4 -3 -4 -4 -3 -3 -4 -4 -3 -4 -3 -5 -3 -4 -2 -5 -2 -5 -3 -5 0 0 -1 -5 -2 -5 -1 -5 -1 -5 -1 -5 -1 -5 0 -5 0 -6 0 -5 1 -5 1 -5 0 -5 2 -5 1 -4 2 -5 2 -5 2 -4 2 -5 3 -4 2 -4 3 -5 3 -4 4 -3 3 -4 4 -4 4 -3 4 -3 4 -3 5 -3 4 -2 5 -3 5 -2 0 0 5 -2 5 -1 5 -1 6 -2 5 0 5 -1 5 0 5 0 5 0 5 1 5 0 5 1 5 2 5 1 5 2 4 2 5 2 4 2 5 2 4 3 4 3 4 3 4 4 4 3 3 4 4 4 3 4 3 4 2 5 3 4 2 5 2 5 0 0 2 5 2 5 1 5 1 5 1 6 1 5 0 5 0 5 0 5 -1 5 -1 5 -1 5 -1 5 -1 5 -2 5 -2 4 -2 5 -2 4 -3 5 -3 4 -2 4 -4 4 -3 4 -4 4 -3 3 -4 3 -4 4 -5 3 -4 2 -5 3 -4 2 -5 2 0 0zm-511 85l470 -187 4 9 -471 187 -3 -9z"/>
    </g>
    <g>
     <path class="fil3" d="M880 622l5 2 5 3 4 3 4 3 4 3 4 4 4 3 3 4 3 4 4 4 2 4 3 5 2 4 3 5 2 4 1 5 2 5 1 5 1 5 1 5 1 5 0 5 0 5 0 5 0 5 -1 5 -1 5 -1 5 -2 5 -1 5 -2 5 -3 5 0 0 -2 5 -3 5 -3 4 -3 4 -3 4 -3 4 -4 4 -4 3 -4 3 -4 3 -4 3 -4 3 -5 2 -4 3 -5 2 -5 1 -5 2 -4 1 -5 1 -5 1 -5 1 -5 0 -6 0 -5 0 -5 -1 -5 0 -5 -1 -5 -1 -5 -2 -5 -1 -5 -2 -5 -3 0 0 -5 -2 -4 -3 -5 -3 -4 -3 -4 -3 -4 -4 -3 -3 -4 -4 -3 -4 -3 -4 -3 -4 -3 -4 -2 -5 -2 -4 -2 -5 -2 -5 -1 -5 -2 -4 -1 -5 -1 -5 0 -5 -1 -5 0 -6 0 -5 1 -5 0 -5 1 -5 2 -5 1 -5 2 -5 2 -5 2 -5 0 0 2 -5 3 -4 3 -5 3 -4 3 -4 4 -4 3 -3 4 -4 4 -3 4 -3 4 -3 5 -3 4 -2 5 -2 4 -2 5 -2 5 -2 5 -1 5 -1 5 -1 5 0 5 -1 5 0 5 0 5 1 5 0 5 1 5 2 5 1 5 2 5 2 5 2 0 0zm355 295l-403 -196 4 -9 403 196 -4 9z"/>
    </g>
    <g>
     <path class="fil3" d="M1575 1186l-4 -2 -5 -3 -4 -3 -5 -3 -4 -3 -4 -3 -3 -4 -4 -3 -3 -4 -3 -4 -3 -4 -3 -5 -3 -4 -2 -5 -2 -4 -2 -5 -1 -5 -2 -5 -1 -4 -1 -5 0 -5 -1 -5 0 -6 0 -5 0 -5 1 -5 1 -5 1 -5 1 -5 2 -5 2 -5 2 -5 0 0 2 -5 3 -5 3 -4 3 -4 3 -4 3 -4 4 -4 3 -4 4 -3 4 -3 4 -3 5 -3 4 -2 5 -2 4 -3 5 -1 5 -2 5 -1 4 -2 5 0 5 -1 5 -1 6 0 5 0 5 1 5 0 5 1 5 1 5 1 5 2 5 2 5 2 0 0 5 2 5 3 4 3 4 3 4 3 4 3 4 4 4 4 3 4 3 4 3 4 3 4 2 4 2 5 2 5 2 4 2 5 1 5 1 5 1 5 1 5 0 5 1 5 0 5 -1 5 0 5 -1 5 -1 5 -2 5 -1 6 -2 5 -2 4 0 0 -3 5 -2 5 -3 4 -3 5 -3 4 -4 4 -3 3 -4 4 -4 3 -4 3 -4 3 -4 3 -5 3 -4 2 -5 2 -4 2 -5 1 -5 2 -5 1 -5 1 -5 0 -5 1 -5 0 -5 0 -5 0 -5 -1 -5 -1 -6 -1 -5 -1 -5 -2 -5 -2 -5 -2 0 0zm-336 -278l383 179 -4 9 -383 -179 4 -9z"/>
    </g>
    <g>
     <path class="fil3" d="M1011 1339l1 -5 2 -5 2 -5 2 -4 3 -5 3 -4 2 -5 4 -4 3 -4 3 -3 4 -4 4 -3 3 -4 5 -3 4 -2 4 -3 4 -2 5 -3 5 -1 4 -2 5 -2 5 -1 5 -1 5 -1 5 0 5 -1 6 0 5 0 5 1 5 1 5 1 6 1 0 0 5 2 5 1 5 2 5 3 4 2 5 3 4 3 4 3 4 3 4 4 3 3 3 4 4 4 3 4 2 4 3 4 2 5 3 4 2 5 1 5 2 5 1 5 1 4 1 6 0 5 1 5 0 5 0 5 -1 5 -1 6 -1 5 -1 5 0 0 -2 5 -1 5 -2 5 -3 5 -2 4 -3 5 -3 4 -3 4 -3 4 -3 4 -4 3 -4 4 -4 3 -4 3 -4 3 -4 2 -5 3 -4 2 -5 2 -5 2 -4 1 -5 1 -5 1 -5 1 -5 1 -6 0 -5 0 -5 0 -5 -1 -5 0 -6 -1 -5 -2 0 0 -5 -1 -5 -2 -5 -2 -5 -2 -4 -3 -5 -3 -4 -2 -4 -3 -4 -4 -4 -3 -3 -4 -4 -4 -3 -3 -3 -5 -3 -4 -2 -4 -3 -4 -2 -5 -2 -5 -2 -4 -1 -5 -1 -5 -1 -5 -1 -5 -1 -5 0 -5 0 -6 0 -5 1 -5 0 -5 1 -5 2 -6 0 0zm231 -425l-125 454 -10 -2 125 -455 10 3z"/>
    </g>
    <g>
     <path class="fil3" d="M797 1775l3 -4 2 -5 3 -4 3 -5 4 -4 3 -3 4 -4 3 -4 4 -3 4 -3 5 -3 4 -2 4 -3 5 -2 4 -2 5 -2 5 -1 5 -2 5 -1 5 -1 5 0 5 0 5 -1 5 1 5 0 5 1 5 0 5 2 5 1 5 2 5 2 5 2 0 0 5 2 5 3 4 3 4 3 4 3 4 4 4 3 3 4 4 4 3 4 3 4 2 5 3 4 2 5 2 4 2 5 1 5 1 5 2 5 0 5 1 5 0 5 0 5 0 5 0 5 -1 5 -1 5 -1 5 -1 5 -2 5 -2 5 -2 5 0 0 -3 5 -2 4 -3 5 -3 4 -3 4 -4 4 -4 4 -3 3 -4 3 -4 3 -4 3 -5 3 -4 2 -5 3 -4 2 -5 1 -5 2 -5 1 -5 1 -5 1 -5 1 -5 0 -5 0 -5 0 -5 0 -5 -1 -5 -1 -5 -1 -5 -1 -5 -2 -5 -2 -5 -2 0 0 -5 -3 -5 -3 -4 -2 -4 -3 -4 -4 -4 -3 -4 -4 -3 -4 -4 -4 -3 -4 -3 -4 -2 -4 -3 -5 -2 -4 -2 -5 -2 -4 -1 -5 -1 -5 -1 -5 -1 -5 -1 -5 0 -5 0 -5 0 -5 0 -5 1 -5 1 -6 1 -5 1 -5 2 -5 2 -5 2 -5 0 0zm319 -406l-220 454 -9 -4 220 -454 9 4z"/>
    </g>
    <g>
     <path class="fil3" d="M1336 1988l-3 -5 -2 -4 -2 -5 -1 -5 -2 -5 -1 -5 -1 -5 -1 -6 0 -5 0 -5 0 -5 0 -5 1 -5 1 -5 1 -5 1 -5 1 -4 2 -5 2 -5 2 -4 3 -5 2 -4 3 -4 3 -4 3 -4 4 -4 4 -4 3 -3 4 -4 5 -3 4 -3 5 -2 0 0 5 -3 4 -2 5 -2 5 -2 5 -1 5 -1 5 -1 6 -1 5 0 5 -1 5 1 5 0 5 0 5 1 5 1 5 2 4 1 5 2 5 2 4 2 5 2 4 3 4 3 4 3 4 3 4 4 4 3 3 4 4 4 3 4 3 5 2 4 0 0 3 5 2 5 2 5 2 5 1 5 1 5 1 5 1 5 0 5 1 5 -1 5 0 5 0 5 -1 5 -1 5 -2 5 -1 5 -2 5 -2 4 -2 5 -2 4 -3 5 -3 4 -3 4 -3 4 -4 4 -3 3 -4 4 -4 3 -4 3 -5 3 -4 3 0 0 -5 3 -5 2 -5 2 -5 1 -5 2 -5 1 -5 1 -5 1 -5 0 -5 0 -5 0 -5 0 -6 -1 -4 -1 -5 -1 -5 -1 -5 -1 -5 -2 -4 -2 -5 -2 -4 -3 -5 -2 -4 -3 -4 -3 -4 -3 -4 -4 -4 -4 -3 -3 -3 -5 -3 -4 -3 -4 -3 -5 0 0zm-220 -623l316 570 -9 5 -315 -570 8 -5z"/>
    </g>
    <g>
     <path class="fil3" d="M997 2189l4 -4 4 -3 5 -3 4 -3 5 -2 4 -3 5 -2 5 -2 5 -1 5 -1 5 -2 5 0 5 -1 5 0 5 -1 5 1 5 0 5 0 5 1 5 1 5 2 4 1 5 2 5 2 4 2 5 3 4 2 5 3 4 3 4 4 4 4 3 3 0 0 4 5 3 4 3 4 3 4 3 5 2 5 2 4 2 5 1 5 2 5 1 5 1 5 0 5 1 5 0 5 0 5 -1 5 0 5 -1 5 -1 5 -1 5 -2 5 -2 4 -2 5 -2 5 -2 4 -3 5 -3 4 -3 4 -4 4 -3 4 -4 4 0 0 -4 3 -4 3 -5 4 -4 2 -5 3 -4 2 -5 2 -5 2 -5 2 -5 1 -4 1 -5 1 -5 1 -6 0 -5 0 -5 0 -5 0 -5 -1 -5 -1 -5 -1 -4 -1 -5 -2 -5 -1 -5 -2 -4 -3 -5 -2 -4 -3 -5 -3 -4 -3 -4 -3 -4 -4 -3 -4 0 0 -4 -4 -3 -4 -3 -5 -3 -4 -3 -5 -2 -4 -2 -5 -2 -5 -1 -4 -2 -5 -1 -5 -1 -5 0 -5 -1 -5 0 -5 0 -5 1 -5 0 -5 1 -5 1 -5 1 -5 2 -5 2 -5 2 -5 2 -4 2 -5 3 -4 3 -4 3 -5 4 -4 3 -3 4 -4 0 0zm434 -248l-360 329 -6 -7 359 -329 7 7z"/>
    </g>
    <g>
     <path class="fil3" d="M849 2717l1 -5 2 -5 2 -5 2 -5 2 -4 3 -5 3 -4 3 -4 3 -4 3 -4 4 -4 3 -3 4 -3 4 -4 4 -2 4 -3 5 -3 4 -2 5 -2 5 -2 4 -2 5 -1 5 -1 5 -1 5 -1 5 0 6 0 5 0 5 0 5 1 6 1 5 1 0 0 5 1 5 2 5 2 5 2 4 2 5 3 4 2 4 3 4 4 4 3 4 3 3 4 4 4 3 4 3 4 2 4 3 5 2 4 2 5 2 4 2 5 1 5 1 5 1 5 1 5 0 5 1 5 0 6 -1 5 0 5 -1 5 -1 6 0 0 -2 5 -2 5 -1 5 -3 5 -2 4 -2 5 -3 4 -3 4 -3 4 -4 4 -3 4 -4 3 -4 3 -4 4 -4 3 -4 2 -4 3 -5 2 -4 2 -5 2 -5 2 -5 1 -5 1 -5 1 -5 1 -5 0 -5 0 -5 0 -6 0 -5 -1 -5 0 -5 -2 0 0 -6 -1 -5 -2 -5 -2 -4 -2 -5 -2 -5 -3 -4 -2 -4 -3 -4 -4 -4 -3 -4 -3 -3 -4 -3 -4 -3 -4 -3 -4 -3 -4 -3 -5 -2 -4 -2 -5 -2 -4 -1 -5 -2 -5 -1 -5 -1 -5 -1 -5 0 -5 0 -5 0 -6 0 -5 1 -5 1 -5 1 -6 0 0zm224 -450l-117 477 -10 -3 117 -476 10 2z"/>
    </g>
    <g>
     <path class="fil3" d="M810 1043l3 3 3 2 2 3 3 2 2 3 2 3 2 3 2 3 1 3 2 3 1 3 1 3 1 4 1 3 1 3 0 4 0 3 1 3 0 4 -1 3 0 4 0 3 -1 3 -1 4 -1 3 -1 3 -1 4 -2 3 -1 3 -2 3 -2 3 -2 3 0 0 -3 3 -2 3 -2 2 -3 2 -3 3 -3 2 -3 2 -3 1 -3 2 -3 2 -3 1 -3 1 -3 1 -4 1 -3 0 -4 1 -3 0 -3 1 -4 0 -3 -1 -4 0 -3 0 -3 -1 -4 -1 -3 -1 -3 -1 -4 -1 -3 -2 -3 -1 -3 -2 -3 -2 -3 -2 0 0 -3 -3 -3 -2 -2 -3 -2 -2 -3 -3 -2 -3 -2 -3 -1 -3 -2 -3 -1 -3 -2 -3 -1 -3 -1 -3 -1 -4 0 -3 -1 -4 0 -3 0 -3 0 -4 0 -3 0 -4 0 -3 1 -3 1 -4 1 -3 1 -3 1 -4 2 -3 1 -3 2 -3 2 -3 2 -3 0 0 3 -3 2 -3 3 -2 2 -2 3 -3 3 -2 3 -2 3 -1 3 -2 3 -2 3 -1 3 -1 4 -1 3 -1 3 0 4 -1 3 0 3 -1 4 0 3 1 4 0 3 0 4 1 3 1 3 1 4 1 3 1 3 2 3 1 3 2 3 2 3 2 0 0zm299 328l-345 -268 6 -7 345 267 -6 8z"/>
    </g>
    <g>
     <path class="fil3" d="M1566 560l-2 3 -3 3 -2 2 -2 3 -3 2 -3 3 -3 2 -2 2 -3 1 -3 2 -4 2 -3 1 -3 1 -3 1 -3 1 -4 1 -3 0 -4 1 -3 0 -3 0 -4 0 -3 -1 -4 0 -3 -1 -4 0 -3 -1 -3 -1 -3 -2 -4 -1 -3 -2 -3 -2 -3 -2 0 0 -3 -2 -3 -2 -3 -2 -2 -3 -2 -3 -3 -2 -2 -3 -2 -3 -1 -3 -2 -3 -2 -3 -1 -3 -1 -3 -1 -4 -1 -3 -1 -3 0 -4 -1 -3 0 -4 0 -3 0 -3 1 -4 0 -3 1 -4 0 -3 1 -3 1 -4 2 -3 1 -3 2 -3 2 -3 2 -4 0 0 2 -2 2 -3 2 -3 3 -2 3 -3 2 -2 3 -2 3 -2 3 -2 3 -2 3 -1 3 -1 3 -2 4 -1 3 0 3 -1 4 -1 3 0 3 0 4 0 3 0 4 0 3 1 4 0 3 1 3 1 4 1 3 1 3 2 3 1 3 2 4 2 0 0 2 2 3 3 3 2 2 2 3 3 2 3 2 3 2 2 2 3 2 3 1 4 1 3 2 3 1 3 0 4 1 3 1 3 0 4 0 3 0 3 0 4 0 3 -1 4 0 3 -1 4 -1 3 -1 3 -1 3 -2 4 -1 3 -2 3 -2 3 0 0zm-333 350l270 -393 8 6 -270 393 -8 -6z"/>
    </g>
    <g>
     <path class="fil3" d="M1550 1103l-1 -3 0 -4 0 -3 0 -4 0 -3 0 -4 1 -3 0 -4 1 -3 1 -3 1 -4 2 -3 1 -3 2 -3 2 -3 2 -3 2 -2 2 -3 2 -3 2 -2 3 -2 3 -3 2 -2 3 -2 3 -1 3 -2 3 -2 4 -1 3 -1 3 -1 4 -1 3 -1 0 0 4 0 4 -1 3 0 4 0 3 0 4 1 3 0 4 1 3 1 3 1 4 1 3 1 3 2 3 1 3 2 3 2 2 2 3 2 2 2 3 3 2 2 2 3 3 3 1 3 2 3 2 3 2 3 1 3 1 3 1 4 1 3 1 4 0 0 0 3 1 4 0 4 0 3 0 4 -1 3 0 4 -1 3 -1 3 -1 4 -1 3 -1 3 -2 3 -1 3 -2 3 -2 3 -2 3 -2 2 -3 3 -2 2 -2 3 -3 2 -3 2 -3 2 -3 2 -3 1 -3 2 -3 1 -3 2 -4 1 -3 0 -4 1 0 0 -4 1 -3 0 -4 0 -3 0 -4 0 -3 0 -4 -1 -3 -1 -3 0 -4 -1 -3 -2 -3 -1 -3 -1 -3 -2 -3 -2 -3 -2 -3 -2 -2 -2 -3 -2 -2 -3 -3 -2 -2 -3 -2 -2 -2 -3 -2 -3 -1 -3 -2 -3 -1 -4 -2 -3 -1 -3 -1 -4 0 -4 0 0zm-29 -604l104 591 -10 2 -104 -591 10 -2z"/>
    </g>
    <g>
     <path class="fil3" d="M1098 458l2 3 1 3 1 4 1 3 1 4 0 3 1 4 0 3 0 4 0 3 0 3 -1 4 0 3 -1 4 -1 3 -1 3 -1 3 -2 3 -1 4 -2 3 -2 2 -2 3 -2 3 -2 3 -2 2 -3 3 -2 2 -3 2 -3 2 -3 2 -3 2 -3 2 0 0 -4 1 -3 1 -3 2 -4 1 -3 0 -4 1 -3 0 -4 1 -3 0 -4 -1 -3 0 -3 0 -4 -1 -3 -1 -3 0 -4 -2 -3 -1 -3 -1 -3 -2 -3 -1 -3 -2 -3 -2 -3 -2 -2 -2 -3 -3 -2 -2 -3 -3 -2 -3 -2 -2 -2 -3 -2 -4 -1 -3 0 0 -2 -3 -1 -4 -1 -3 -1 -3 -1 -4 0 -3 -1 -4 0 -3 0 -4 0 -3 0 -3 1 -4 0 -3 1 -4 1 -3 1 -3 1 -3 2 -3 1 -4 2 -3 2 -2 1 -3 3 -3 2 -3 2 -2 3 -3 2 -2 3 -2 3 -2 3 -2 3 -2 3 -2 0 0 4 -1 3 -1 3 -2 4 -1 3 0 4 -1 3 0 4 -1 3 0 4 0 3 1 3 0 4 1 3 1 3 0 4 1 3 2 3 1 3 2 3 1 3 2 3 2 3 2 2 2 3 3 2 2 2 3 3 3 2 2 2 3 1 4 2 3 0 0zm134 457l-203 -424 9 -5 203 425 -9 4z"/>
    </g>
    <g>
     <path class="fil3" d="M812 1372l3 -1 4 -1 3 0 4 -1 3 0 4 0 3 1 4 0 3 1 4 0 3 1 3 1 3 2 3 1 4 2 2 1 3 2 3 2 3 2 3 2 2 3 2 2 3 3 2 2 2 3 2 3 2 3 1 3 2 3 1 4 1 3 1 4 0 0 1 3 1 4 0 3 1 4 0 3 0 4 -1 3 0 4 -1 3 0 4 -1 3 -1 3 -2 3 -1 3 -2 4 -1 3 -2 2 -2 3 -2 3 -2 3 -3 2 -2 3 -3 2 -2 2 -3 2 -3 2 -3 2 -3 1 -3 2 -4 1 -3 1 -4 1 0 0 -3 1 -4 1 -3 0 -4 1 -3 0 -4 0 -3 -1 -4 0 -3 -1 -4 0 -3 -1 -3 -1 -3 -2 -3 -1 -3 -2 -3 -1 -3 -2 -3 -2 -3 -2 -3 -2 -2 -3 -2 -2 -3 -3 -2 -2 -2 -3 -2 -3 -2 -3 -1 -3 -2 -3 -1 -4 -1 -3 -1 -4 0 0 -1 -3 -1 -4 0 -3 -1 -4 0 -3 0 -4 1 -3 0 -4 1 -3 1 -4 0 -3 1 -3 2 -3 1 -3 2 -4 1 -3 2 -2 2 -3 2 -3 2 -3 3 -2 2 -3 3 -2 2 -2 3 -2 3 -2 3 -2 3 -1 3 -2 4 -1 3 -1 4 -1 0 0zm301 0l-282 73 -3 -9 283 -74 2 10z"/>
    </g>
    <g>
     <path class="fil3" d="M1810 1811l-3 -2 -3 -2 -3 -2 -3 -2 -3 -2 -2 -3 -3 -2 -2 -3 -2 -3 -2 -2 -2 -3 -1 -3 -2 -3 -1 -3 -2 -4 -1 -3 -1 -3 -1 -3 0 -4 -1 -3 0 -4 0 -3 0 -3 0 -4 0 -3 1 -4 1 -3 1 -4 1 -3 1 -3 1 -4 2 -3 0 0 2 -3 2 -3 2 -3 2 -3 2 -3 2 -2 3 -3 3 -2 2 -2 3 -2 3 -2 3 -2 3 -1 3 -2 3 -1 4 -1 3 -1 3 -1 4 0 3 -1 3 0 4 0 3 0 4 0 3 0 4 1 3 1 3 0 4 1 3 2 4 1 3 2 0 0 3 1 3 2 3 2 3 3 2 2 3 2 2 3 3 2 2 3 2 3 2 3 1 3 2 3 1 3 2 3 1 3 1 4 0 3 1 3 1 4 0 3 0 4 0 3 0 4 -1 3 0 3 -1 4 -1 3 -1 4 -1 3 -1 3 -2 4 0 0 -2 3 -2 3 -2 3 -2 3 -2 2 -3 3 -2 2 -3 3 -2 2 -3 2 -3 2 -3 1 -3 2 -3 1 -3 1 -4 2 -3 1 -3 0 -4 1 -3 0 -3 1 -4 0 -3 0 -4 0 -3 -1 -4 0 -3 -1 -4 -1 -3 -1 -3 -1 -4 -2 -3 -1 0 0zm-696 -448l731 380 -4 9 -731 -380 4 -9z"/>
    </g>
    <g>
     <path class="fil3" d="M1358 1923l1 -3 1 -4 1 -3 1 -3 2 -4 1 -3 2 -3 2 -3 2 -2 2 -3 2 -3 3 -2 2 -3 3 -2 2 -2 3 -2 3 -2 3 -1 3 -2 3 -1 3 -2 4 -1 3 -1 3 0 4 -1 3 0 4 -1 3 0 4 0 3 1 4 0 4 1 0 0 3 0 4 1 3 1 3 2 4 1 3 2 3 2 3 1 2 3 3 2 3 2 2 2 3 3 2 2 2 3 2 3 2 3 1 3 2 3 1 3 2 3 1 3 1 4 0 3 1 3 0 4 1 3 0 4 0 3 -1 4 0 4 -1 3 0 0 0 4 -1 3 -2 4 -1 3 -1 3 -2 3 -2 3 -1 3 -2 3 -3 3 -2 2 -2 3 -3 2 -2 2 -3 2 -3 2 -3 2 -3 2 -3 1 -3 2 -3 1 -3 1 -4 1 -3 1 -3 1 -4 0 -3 0 -4 0 -3 0 -4 0 -4 0 -3 -1 0 0 -4 -1 -3 -1 -4 -1 -3 -1 -3 -2 -3 -1 -3 -2 -3 -2 -3 -2 -3 -2 -2 -2 -3 -3 -2 -2 -2 -3 -2 -2 -2 -3 -2 -3 -2 -3 -2 -3 -1 -3 -1 -3 -1 -4 -1 -3 -1 -3 -1 -4 0 -3 0 -4 0 -3 0 -4 0 -3 0 -4 1 -4 0 0zm246 -841l-171 856 -10 -2 171 -856 10 2z"/>
    </g>
    <g>
     <path class="fil3" d="M916 2033l3 2 3 3 2 3 2 2 2 3 2 3 2 3 1 3 1 4 2 3 1 3 1 3 0 4 1 3 0 4 1 3 0 3 0 4 -1 3 0 4 -1 3 0 3 -1 4 -1 3 -1 3 -2 3 -1 4 -2 3 -2 3 -2 3 -2 2 -3 3 0 0 -2 3 -3 2 -3 3 -2 2 -3 2 -3 2 -3 1 -3 2 -4 1 -3 2 -3 1 -3 0 -4 1 -3 1 -3 0 -4 0 -3 0 -4 0 -3 0 -4 0 -3 -1 -3 -1 -4 0 -3 -1 -3 -2 -3 -1 -3 -2 -4 -1 -3 -2 -3 -2 -2 -3 -3 -2 0 0 -3 -2 -2 -3 -3 -3 -2 -3 -2 -2 -2 -3 -1 -3 -2 -4 -1 -3 -1 -3 -1 -3 -1 -4 -1 -3 -1 -3 0 -4 0 -3 0 -3 0 -4 0 -3 0 -4 1 -3 1 -3 1 -4 1 -3 1 -3 1 -4 2 -3 1 -3 2 -3 2 -3 3 -3 2 -2 0 0 2 -3 3 -2 3 -3 3 -2 3 -2 3 -2 3 -2 3 -1 3 -1 3 -2 3 -1 4 -1 3 0 3 -1 4 0 3 -1 4 0 3 0 3 1 4 0 3 1 4 0 3 1 3 1 3 2 4 1 3 2 3 1 3 2 3 2 3 2 2 3 0 0zm149 237l-200 -181 7 -7 199 181 -6 7z"/>
    </g>
    <g>
     <path class="fil3" d="M1231 2655l-2 -3 -2 -3 -1 -3 -2 -3 -1 -4 -1 -3 -1 -3 0 -4 -1 -3 0 -4 0 -3 0 -4 0 -3 0 -3 1 -4 1 -3 0 -3 1 -4 1 -3 2 -3 1 -3 2 -3 2 -3 1 -3 2 -3 3 -3 2 -2 2 -3 3 -2 3 -3 3 -2 3 -2 0 0 3 -2 3 -1 3 -2 4 -1 3 -1 3 -1 4 -1 3 -1 4 0 3 -1 3 0 4 0 3 0 4 1 3 0 3 1 4 1 3 1 3 1 3 1 3 2 4 1 3 2 2 2 3 2 3 2 3 2 2 3 2 3 3 2 2 3 2 3 0 0 2 3 2 4 1 3 1 3 2 3 1 4 0 3 1 4 0 3 1 3 0 4 0 3 0 4 -1 3 0 3 -1 4 -1 3 -1 3 -1 4 -1 3 -1 3 -2 3 -2 3 -2 3 -2 3 -2 2 -2 3 -3 2 -2 3 -3 2 -3 2 -3 2 0 0 -3 2 -3 2 -4 1 -3 2 -3 1 -4 1 -3 1 -3 0 -4 1 -3 0 -4 0 -3 0 -3 0 -4 0 -3 -1 -4 0 -3 -1 -3 -1 -3 -1 -4 -2 -3 -1 -3 -2 -3 -1 -3 -2 -2 -2 -3 -2 -3 -3 -2 -2 -3 -3 -2 -3 -2 -3 -2 -3 0 0zm-159 -391l223 351 -8 5 -223 -351 8 -5z"/>
    </g>
    <g>
     <path class="fil3" d="M907 1752l3 1 4 1 3 1 3 1 3 2 4 1 3 2 2 2 3 2 3 2 2 3 3 2 2 3 2 2 2 3 2 3 2 3 2 3 1 3 2 3 1 3 1 3 1 4 0 3 1 4 0 3 1 4 0 3 0 4 -1 3 0 4 -1 3 0 0 -1 4 -1 3 -1 4 -1 3 -2 3 -2 3 -1 3 -2 3 -2 3 -3 3 -2 2 -2 3 -3 2 -2 2 -3 2 -3 2 -3 2 -3 1 -3 2 -3 1 -3 1 -4 2 -3 0 -3 1 -4 1 -3 0 -4 0 -3 0 -4 0 -3 0 -4 -1 -3 0 0 0 -4 -1 -3 -1 -4 -1 -3 -2 -3 -1 -3 -2 -3 -2 -3 -2 -3 -2 -3 -2 -2 -2 -3 -2 -2 -3 -2 -3 -2 -2 -2 -3 -2 -3 -2 -3 -1 -3 -1 -3 -2 -4 -1 -3 -1 -3 0 -4 -1 -3 0 -3 -1 -4 0 -3 1 -4 0 -4 0 -3 1 -4 0 0 1 -3 1 -4 1 -3 1 -3 2 -4 2 -3 1 -3 2 -3 2 -2 3 -3 2 -3 2 -2 3 -2 3 -2 2 -3 3 -1 3 -2 3 -2 3 -1 3 -2 3 -1 4 -1 3 -1 3 -1 4 0 3 -1 4 0 3 0 4 0 3 1 4 0 4 1 0 0zm520 190l-537 -116 3 -10 536 116 -2 10z"/>
    </g>
    <g>
     <path class="fil3" d="M1789 2008l-4 0 -4 0 -3 0 -4 -1 -3 -1 -3 -1 -4 -1 -3 -1 -3 -2 -3 -1 -3 -2 -3 -2 -3 -2 -2 -2 -3 -2 -3 -2 -2 -3 -2 -2 -2 -3 -2 -3 -2 -3 -2 -3 -1 -3 -2 -3 -1 -3 -1 -4 -1 -3 -1 -3 -1 -4 0 -3 0 -4 0 -4 0 0 0 -3 0 -4 0 -3 1 -4 1 -3 1 -4 1 -3 1 -3 2 -3 1 -4 2 -3 2 -2 2 -3 2 -3 2 -2 2 -3 3 -2 3 -3 2 -2 3 -2 3 -1 3 -2 3 -2 3 -1 3 -1 4 -2 3 -1 3 0 4 -1 3 0 4 -1 4 0 0 0 3 0 4 1 4 0 3 1 3 0 4 1 3 2 3 1 3 1 4 2 3 2 2 1 3 2 3 2 2 3 3 2 2 3 3 2 2 3 2 3 1 2 2 3 2 4 1 3 1 3 2 3 1 4 0 3 1 4 0 3 1 4 0 3 0 0 0 4 -1 4 0 3 -1 4 0 3 -1 3 -2 4 -1 3 -1 3 -2 3 -2 3 -1 3 -2 3 -2 3 -3 2 -2 3 -3 2 -2 2 -3 2 -3 2 -2 2 -3 2 -4 1 -3 2 -3 1 -3 1 -4 1 -3 1 -4 1 -3 0 -4 0 -3 0 0 0zm-361 -76l361 0 0 10 -361 0 0 -10z"/>
    </g>
    <g>
     <path class="fil3" d="M1119 2930l-1 -4 0 -4 0 -3 0 -4 0 -3 0 -4 1 -3 0 -4 1 -3 1 -3 1 -4 1 -3 2 -3 1 -3 2 -3 2 -3 2 -2 2 -3 2 -3 3 -2 2 -2 3 -3 3 -2 2 -2 3 -2 3 -1 4 -2 3 -1 3 -2 4 -1 3 -1 4 0 0 0 3 -1 4 0 3 -1 4 0 4 1 3 0 3 0 4 1 3 1 4 1 3 1 3 1 3 2 3 1 3 2 3 2 3 2 2 2 3 2 2 3 3 2 2 3 2 3 2 2 2 3 2 3 1 4 2 3 1 3 1 4 1 3 1 4 0 0 0 3 1 4 0 3 0 4 0 3 -1 4 0 3 -1 4 -1 3 -1 3 -1 4 -1 3 -2 3 -1 3 -2 3 -2 3 -2 3 -2 2 -2 3 -3 2 -2 3 -3 2 -2 2 -3 2 -3 2 -3 1 -3 2 -4 1 -3 2 -3 1 -4 1 -3 1 0 0 -4 0 -4 0 -3 1 -4 0 -3 0 -4 -1 -3 0 -4 -1 -3 -1 -3 -1 -4 -1 -3 -1 -3 -2 -3 -1 -3 -2 -3 -2 -2 -2 -3 -2 -3 -2 -2 -3 -2 -2 -3 -3 -2 -2 -2 -3 -2 -3 -1 -3 -2 -3 -1 -4 -2 -3 -1 -3 -1 -4 0 -3 0 0zm-46 -665l121 651 -10 1 -121 -650 10 -2z"/>
    </g>
    <g>
     <path class="fil3" d="M926 2676l4 -1 3 -1 4 -1 3 -1 4 0 3 0 3 -1 4 1 3 0 4 0 3 1 4 0 3 1 3 1 3 2 3 1 4 2 3 1 2 2 3 2 3 2 3 2 2 2 3 3 2 3 2 2 2 3 2 3 2 3 2 3 1 4 1 3 0 0 2 3 1 4 0 3 1 4 0 3 1 4 0 3 0 4 -1 3 0 4 -1 3 0 3 -1 4 -1 3 -1 3 -2 3 -1 3 -2 3 -2 3 -2 3 -2 3 -2 3 -2 2 -3 2 -2 3 -3 2 -3 2 -3 2 -3 2 -3 1 -3 2 -4 1 0 0 -3 1 -4 1 -3 1 -4 1 -3 0 -4 1 -3 0 -4 0 -3 -1 -3 0 -4 -1 -3 0 -4 -1 -3 -1 -3 -2 -3 -1 -3 -1 -3 -2 -3 -2 -3 -2 -3 -2 -2 -2 -3 -2 -2 -3 -3 -2 -2 -3 -2 -3 -2 -3 -2 -3 -1 -3 -2 -4 -1 -3 0 0 -1 -3 -1 -4 -1 -3 -1 -4 0 -3 0 -4 0 -3 0 -4 0 -3 0 -4 1 -3 1 -3 1 -4 1 -3 1 -3 1 -3 2 -3 1 -3 2 -3 2 -3 2 -3 2 -2 3 -3 2 -2 3 -3 2 -2 3 -2 3 -2 3 -2 3 -1 4 -2 3 -1 0 0zm367 -54l-341 125 -3 -9 340 -125 4 9z"/>
    </g>
    <g>
     <path class="fil3" d="M1147 2974l-3 -2 -3 -3 -3 -2 -2 -3 -2 -2 -2 -3 -2 -3 -2 -3 -2 -3 -2 -3 -1 -3 -1 -3 -1 -4 -1 -3 -1 -3 -1 -4 0 -3 0 -3 0 -4 0 -3 0 -4 0 -3 1 -3 0 -4 1 -3 1 -3 2 -4 1 -3 2 -3 1 -3 2 -3 2 -3 0 0 2 -3 3 -3 2 -3 3 -2 3 -2 2 -3 3 -2 3 -1 3 -2 3 -2 3 -1 4 -1 3 -1 3 -1 3 -1 4 -1 3 0 4 0 3 0 3 0 4 0 3 0 4 1 3 0 3 1 4 1 3 2 3 1 3 1 4 2 3 2 3 2 0 0 3 2 2 3 3 2 2 3 3 2 2 3 2 3 2 3 1 3 2 3 1 3 1 3 2 4 0 3 1 3 1 4 0 3 1 3 0 4 0 3 -1 4 0 3 0 4 -1 3 -1 3 -1 4 -1 3 -2 3 -1 3 -2 3 -2 4 -2 3 0 0 -2 2 -3 3 -2 3 -3 2 -2 3 -3 2 -3 2 -3 2 -3 1 -3 2 -3 1 -3 1 -4 2 -3 0 -3 1 -4 1 -3 0 -3 1 -4 0 -3 0 -4 -1 -3 0 -3 -1 -4 0 -3 -1 -3 -1 -4 -1 -3 -2 -3 -1 -3 -2 -3 -2 -3 -2 0 0zm-193 -236l238 175 -6 8 -238 -174 6 -9z"/>
    </g>
    <g>
     <path class="fil3" d="M981 1803l1 3 1 4 1 3 0 4 1 3 0 4 0 3 0 4 -1 3 0 3 -1 4 0 3 -1 3 -1 4 -2 3 -1 3 -2 3 -1 3 -2 3 -2 3 -2 2 -3 3 -2 2 -2 3 -3 2 -3 2 -3 2 -3 2 -3 2 -3 1 -3 2 -4 1 0 0 -3 1 -4 1 -3 1 -4 1 -3 0 -4 0 -3 0 -4 0 -3 0 -3 -1 -4 0 -3 -1 -3 -1 -4 -1 -3 -1 -3 -2 -3 -1 -3 -2 -3 -2 -3 -2 -2 -2 -3 -2 -3 -3 -2 -2 -2 -3 -2 -3 -2 -2 -2 -3 -2 -3 -2 -4 -1 -3 -1 -3 0 0 -1 -4 -1 -3 -1 -4 -1 -3 0 -4 0 -3 0 -4 0 -3 0 -4 1 -3 0 -4 1 -3 1 -3 1 -3 1 -4 2 -3 1 -3 2 -3 2 -3 2 -2 2 -3 2 -3 3 -2 2 -3 3 -2 2 -2 3 -2 3 -2 3 -2 4 -1 3 -2 3 -1 0 0 4 -1 3 -1 4 -1 3 0 4 -1 3 0 4 0 3 0 4 0 3 1 3 1 4 0 3 1 3 1 4 2 3 1 3 2 3 1 3 2 2 2 3 2 3 3 2 2 3 2 2 3 2 3 2 3 2 3 2 3 1 3 2 3 1 4 0 0zm82 465l-154 -440 10 -4 154 441 -10 3z"/>
    </g>
    <g>
     <path class="fil3" d="M1360 2205l0 -3 1 -4 0 -4 1 -3 0 -3 1 -4 1 -3 2 -3 1 -4 2 -3 1 -3 2 -3 2 -2 2 -3 2 -3 3 -2 2 -3 3 -2 2 -2 3 -2 3 -2 3 -2 3 -1 3 -2 3 -1 3 -1 4 -1 3 -1 4 -1 3 0 4 -1 3 0 0 0 4 0 4 0 3 1 4 0 3 1 4 1 3 1 3 1 3 2 3 1 3 2 3 2 3 2 3 2 3 2 2 2 2 3 3 2 2 3 2 3 2 3 2 3 1 3 2 3 1 3 1 3 1 4 1 3 1 3 0 4 0 4 1 3 0 0 0 4 -1 3 0 4 -1 4 0 3 -1 3 -1 4 -2 3 -1 3 -1 3 -2 3 -2 3 -2 3 -2 3 -2 2 -3 3 -2 2 -3 2 -2 3 -3 2 -3 1 -3 2 -3 2 -3 1 -3 2 -3 1 -4 1 -3 1 -4 0 -3 1 -4 0 -3 0 0 0 -4 0 -4 0 -3 0 -4 -1 -3 -1 -4 -1 -3 -1 -3 -1 -3 -1 -3 -2 -3 -1 -3 -2 -3 -2 -3 -2 -3 -2 -2 -3 -2 -2 -3 -3 -2 -2 -2 -3 -2 -3 -2 -3 -1 -3 -2 -3 -1 -3 -1 -4 -1 -3 -1 -3 -1 -4 0 -3 0 -4 -1 -4 0 0zm73 -268l4 267 -10 0 -4 -267 10 0z"/>
    </g>
    <g>
     <path class="fil3" d="M1056 2196l4 0 3 -1 4 0 3 0 4 0 3 1 4 0 3 1 4 1 3 1 3 1 3 1 3 2 3 2 3 1 3 2 3 2 2 2 3 3 2 2 3 3 2 2 2 3 2 3 2 3 1 3 2 3 1 3 2 4 1 3 0 4 1 3 0 0 1 4 0 4 0 3 0 4 0 3 0 4 -1 3 -1 3 -1 4 -1 3 -1 3 -1 4 -2 3 -1 3 -2 3 -2 2 -2 3 -2 3 -3 2 -2 3 -2 2 -3 2 -3 2 -3 2 -3 2 -3 2 -3 1 -3 2 -4 1 -3 1 -3 1 -4 0 0 0 -4 1 -3 0 -4 0 -3 0 -4 0 -3 0 -4 -1 -3 -1 -4 0 -3 -1 -3 -2 -3 -1 -3 -1 -3 -2 -3 -2 -3 -2 -3 -2 -2 -2 -3 -2 -2 -3 -3 -2 -2 -3 -2 -3 -2 -2 -2 -3 -1 -4 -2 -3 -1 -3 -1 -3 -1 -4 -1 -3 -1 -4 0 0 -1 -3 0 -4 0 -4 0 -3 0 -4 1 -3 0 -4 1 -3 1 -3 1 -4 1 -3 1 -3 2 -3 1 -3 2 -3 2 -3 2 -3 2 -2 3 -3 2 -2 3 -2 2 -3 3 -2 3 -2 3 -1 3 -2 3 -2 3 -1 4 -1 3 -1 3 -1 4 -1 0 0zm376 13l-363 62 -2 -10 364 -62 1 10z"/>
    </g>
    <g>
     <path class="fil3" d="M1078 1305l3 -2 3 -1 4 -2 3 -1 4 -1 3 -1 3 0 4 -1 3 0 4 0 3 0 4 0 3 1 3 0 4 1 3 1 3 1 3 1 4 2 3 1 3 2 3 2 2 2 3 2 3 2 2 2 3 3 2 2 2 3 3 3 2 3 1 3 0 0 2 3 2 4 1 3 1 3 1 4 1 3 0 4 1 3 0 4 0 3 0 4 0 3 -1 3 0 4 -1 3 -1 3 -1 4 -1 3 -2 3 -1 3 -2 3 -2 3 -1 3 -3 3 -2 2 -2 3 -3 2 -2 3 -3 2 -3 2 -3 2 -3 2 0 0 -3 1 -4 2 -3 1 -3 1 -4 1 -3 1 -4 0 -3 1 -4 0 -3 0 -3 0 -4 0 -3 0 -4 -1 -3 -1 -3 -1 -3 -1 -4 -1 -3 -1 -3 -2 -3 -1 -3 -2 -3 -2 -2 -2 -3 -2 -3 -3 -2 -2 -2 -3 -3 -3 -2 -3 -2 -3 -2 -3 0 0 -1 -3 -2 -3 -1 -4 -1 -3 -1 -4 -1 -3 0 -3 -1 -4 0 -3 0 -4 0 -3 0 -4 1 -3 0 -3 1 -4 1 -3 1 -3 1 -3 1 -4 2 -3 2 -3 1 -3 2 -2 2 -3 3 -3 2 -2 2 -3 3 -2 3 -2 3 -3 3 -2 3 -1 0 0zm544 -209l-508 276 -4 -9 507 -276 5 9z"/>
    </g>
    <g>
     <path class="fil3" d="M1435 1596l-1 -3 -1 -4 -1 -3 -1 -3 0 -4 -1 -3 0 -4 0 -3 0 -4 0 -3 1 -4 1 -3 0 -3 1 -4 1 -3 2 -3 1 -3 2 -3 1 -3 2 -3 2 -3 2 -3 3 -2 2 -3 3 -2 2 -2 3 -2 3 -3 3 -1 3 -2 3 -2 4 -1 0 0 3 -1 3 -2 4 0 3 -1 4 -1 3 0 4 0 3 0 4 0 3 0 4 1 3 0 3 1 4 1 3 1 3 1 3 2 3 1 3 2 3 2 3 2 2 2 3 2 3 3 2 2 2 3 2 3 2 3 2 3 2 3 2 3 1 3 0 0 1 4 1 3 1 4 1 3 1 4 0 3 0 4 0 3 0 3 0 4 -1 3 0 4 -1 3 -1 3 -1 3 -2 4 -1 3 -2 3 -1 3 -2 3 -2 2 -2 3 -2 3 -3 2 -2 3 -3 2 -3 2 -3 2 -3 2 -3 2 -3 1 -3 2 0 0 -4 1 -3 1 -4 1 -3 1 -4 0 -3 1 -4 0 -3 0 -4 0 -3 -1 -3 0 -4 -1 -3 -1 -3 0 -4 -2 -3 -1 -3 -1 -3 -2 -3 -2 -3 -1 -3 -2 -2 -2 -3 -3 -2 -2 -3 -3 -2 -2 -2 -3 -2 -3 -2 -3 -2 -3 -1 -3 -2 -4 0 0zm-193 -685l264 657 -10 4 -264 -657 10 -4z"/>
    </g>
    <g>
     <path class="fil3" d="M1098 458l2 3 1 3 1 4 1 3 1 4 0 3 1 4 0 3 0 4 0 3 0 3 -1 4 0 3 -1 4 -1 3 -1 3 -1 3 -2 3 -1 4 -2 3 -2 2 -2 3 -2 3 -2 3 -2 2 -3 3 -2 2 -3 2 -3 2 -3 2 -3 2 -3 2 0 0 -4 1 -3 1 -3 2 -4 1 -3 0 -4 1 -3 0 -4 1 -3 0 -4 -1 -3 0 -3 0 -4 -1 -3 -1 -3 0 -4 -2 -3 -1 -3 -1 -3 -2 -3 -1 -3 -2 -3 -2 -3 -2 -2 -2 -3 -3 -2 -2 -3 -3 -2 -3 -2 -2 -2 -3 -2 -4 -1 -3 0 0 -2 -3 -1 -4 -1 -3 -1 -3 -1 -4 0 -3 -1 -4 0 -3 0 -4 0 -3 0 -3 1 -4 0 -3 1 -4 1 -3 1 -3 1 -3 2 -3 1 -4 2 -3 2 -2 1 -3 3 -3 2 -3 2 -2 3 -3 2 -2 3 -2 3 -2 3 -2 3 -2 3 -2 0 0 4 -1 3 -1 3 -2 4 -1 3 0 4 -1 3 0 4 -1 3 0 4 0 3 1 3 0 4 1 3 1 3 0 4 1 3 2 3 1 3 2 3 1 3 2 3 2 3 2 2 2 3 3 2 2 2 3 3 3 2 2 2 3 1 4 2 3 0 0zm130 459l-203 -424 18 -9 203 424 -13 14 -5 -5zm18 -9l12 26 -25 -12 13 -14zm-407 -201l402 197 -8 18 -403 -197 9 -18z"/>
    </g>
    <polyline class="fil2 str1" points="767,1100 1237,913 1620,1091 1507,520 1237,913 1248,439 "/>
    <polyline class="fil2 str1" points="767,1100 1112,1367 1237,913 "/>
    <line class="fil2 str1" x1="830" y1="1441" x2="1112" y2= "1367" />
    <polyline class="fil2 str1" points="1599,1081 1501,1570 1237,913 "/>
    <line class="fil2 str1" x1="1112" y1="1367" x2="1620" y2= "1091" />
    <polyline class="fil2 str1" points="1843,1748 1501,1570 1112,1367 1428,1937 1789,1937 "/>
    <polyline class="fil2 str1" points="1112,1367 892,1821 1428,1937 1501,1570 "/>
    <polyline class="fil2 str1" points="869,2085 1068,2266 1428,1937 1432,2204 "/>
    <polyline class="fil2 str1" points="914,1826 1068,2266 1432,2204 "/>
    <polyline class="fil2 str1" points="1286,2610 1068,2266 1189,2917 "/>
    <polyline class="fil2 str1" points="1068,2266 951,2743 1291,2617 "/>
    <line class="fil2 str1" x1="951" y1="2743" x2="1189" y2= "2917" />
   </g>
   <line class="fil2 str2" x1="1034" y1="488" x2="1242" y2= "926" />
   <line class="fil2 str2" x1="834" y1="716" x2="1256" y2= "922" />
   <polyline class="fil2 str2" points="1248,439 1237,914 1507,520 "/>
   <polyline class="fil2 str2" points="830,1441 1118,1378 1237,914 767,1100 1118,1378 1510,1574 1237,914 "/>
   <line class="fil2 str2" x1="1106" y1="1369" x2="1605" y2= "1099" />
   <line class="fil2 str2" x1="1237" y1="914" x2="1620" y2= "1091" />
   <line class="fil2 str2" x1="1599" y1="1081" x2="1501" y2= "1570" />
   <line class="fil2 str2" x1="1507" y1="520" x2="1620" y2= "1091" />
   <polyline class="fil2 str2" points="888,1837 1112,1367 1428,1937 1503,1558 "/>
   <line class="fil2 str2" x1="1501" y1="1570" x2="1825" y2= "1739" />
   <polyline class="fil2 str2" points="892,1821 1428,1937 1789,1937 "/>
   <polyline class="fil2 str2" points="869,2085 1070,2278 914,1826 "/>
   <polyline class="fil2 str2" points="1432,2204 1066,2274 1428,1937 "/>
   <polyline class="fil2 str2" points="1291,2617 1066,2274 951,2743 "/>
   <line class="fil2 str2" x1="1066" y1="2274" x2="1189" y2= "2917" />
   <polyline class="fil2 str2" points="1291,2617 951,2743 1189,2917 "/>
   <line class="fil2 str2" x1="1432" y1="2204" x2="1432" y2= "1937" />
  </g>
 </g>
</svg>
